# xmcd CD database file
#
# Track frame offsets:
#	150
#	19503
#	42937
#	66441
#	85453
#	105532
#	120194
#	135862
#	152343
#	187947
#	202483
#	217328
#	228325
#	248652
#	271488
#	293013
#	309317
#	318510
#	338904
#
# Disc length: 4697 seconds
#
# Revision: 3
# Processed by: cddbd v1.5.2PL0 Copyright (c) Steve Scherf et al.
# Submitted via: CDex 1.70beta2
#
DISCID=0b125713
DTITLE=Андрей Макаревич и Оркестр креольского танго - От меня к тебе
DYEAR=2004
DGENRE=Rock
TTITLE0=Начало
TTITLE1=Тем, кто ушел
TTITLE2=Наливай
TTITLE3=Море любви
TTITLE4=Было не снами
TTITLE5=Когда ее нет
TTITLE6=Песенка про счастье
TTITLE7=От меня к тебе
TTITLE8=Ты или я
TTITLE9=Брассенс и Бернес
TTITLE10=Песня про отца
TTITLE11=Песня про Машу и ее сучку
TTITLE12=Тонкий шрам на любимой попе
TTITLE13=Он был старше ее
TTITLE14=Перекресток
TTITLE15=Бесплатно только птички поют
TTITLE16=Паузы
TTITLE17=Вот и все
TTITLE18=Дружба
EXTD=Çàïèñàíî "æèâüåì" 5 ìàÿ 2004 ãîäà â "Ëå êëóáå",\nçâóêîðåæèññåð çàïèñè Äìèòðèé Áóõàðîâ, ñâåäåíèå - "Ñòóäèÿ íà Òàãàíêå",\nçâóêîðåæèññåð ñâåäåíèÿ Àíäðåé Ñòàðêîâ.\nÎôèöèàëüíûé ñàéò Àíäðåÿ Ìàêàðåâè÷à:\nwww.makar.info YEAR: 2004
EXTT0=Ìóçûêà, ñëîâà - À.Ìàêàðåâè÷
EXTT1=Ìóçûêà, ñëîâà - À.Ìàêàðåâè÷
EXTT2=Ìóçûêà, ñëîâà - À.Ìàêàðåâè÷
EXTT3=Ìóçûêà, ñëîâà - À.Ìàêàðåâè÷
EXTT4=Ìóçûêà, ñëîâà - À.Ìàêàðåâè÷
EXTT5=Ìóçûêà, ñëîâà - À.Ìàêàðåâè÷
EXTT6=Ìóçûêà, ñëîâà - À.Ìàêàðåâè÷
EXTT7=Ìóçûêà, ñëîâà - À.Ìàêàðåâè÷
EXTT8=Ìóçûêà - À.Ìàêàðåâè÷, èíñòðóìåíòàëüíàÿ àðàíæèðîâêà - Ñ.Õóòàñ
EXTT9=Ìóçûêà, ñëîâà - Ì.Ôðåéäêèí
EXTT10=Ìóçûêà, ñëîâà - Ì.Ôðåéäêèí
EXTT11=Ìóçûêà - óêðàèíñêàÿ íàðîäíàÿ, ñëîâà - Ì.Ôðåéäêèí
EXTT12=Ìóçûêà, ñëîâà - Ì.Ôðåéäêèí
EXTT13=Ìóçûêà, ñëîâà - À.Ìàêàðåâè÷
EXTT14=Ìóçûêà, ñëîâà - À.Ìàêàðåâè÷
EXTT15=Ìóçûêà, ñëîâà - À.Ìàêàðåâè÷
EXTT16=Ìóçûêà, ñëîâà - À.Ìàêàðåâè÷
EXTT17=Ìóçûêà, ñëîâà - À.Ìàêàðåâè÷
EXTT18=Ìóçûêà Â.Ñèäîðîâ, Ñëîâà À.Øìóëüÿí
PLAYORDER=
